<?xml version="1.0" encoding="utf-8"?>
<!-- Generator: Adobe Illustrator 22.0.0, SVG Export Plug-In . SVG Version: 6.00 Build 0)  -->
<svg version="1.1" id="Layer_1" xmlns="http://www.w3.org/2000/svg" xmlns:xlink="http://www.w3.org/1999/xlink" x="0px" y="0px"
	 viewBox="0 0 591 635" style="enable-background:new 0 0 591 635;" xml:space="preserve">
<style type="text/css">
	.st0{fill:#D73832;}
	.st1{fill:#FFFFFF;}
	.st2{fill:#FFFFFF;stroke:#FFFFFF;stroke-width:20;stroke-miterlimit:10;}
	.st3{fill:#405352;stroke:#FFFFFF;stroke-width:20;stroke-miterlimit:10;}
	.st4{fill:#405352;}
</style>
<g>
	<circle class="st0" cx="141" cy="191" r="131"/>
	<path class="st1" d="M141,70c32.3,0,62.7,12.6,85.6,35.4c22.9,22.9,35.4,53.2,35.4,85.6s-12.6,62.7-35.4,85.6
		C203.7,299.4,173.3,312,141,312s-62.7-12.6-85.6-35.4C32.6,253.7,20,223.3,20,191s12.6-62.7,35.4-85.6C78.3,82.6,108.7,70,141,70
		 M141,50C63.1,50,0,113.1,0,191s63.1,141,141,141s141-63.1,141-141S218.9,50,141,50L141,50z"/>
</g>
<g>
	<circle class="st0" cx="441" cy="141" r="131"/>
	<path class="st1" d="M441,20c32.3,0,62.7,12.6,85.6,35.4C549.4,78.3,562,108.7,562,141s-12.6,62.7-35.4,85.6
		C503.7,249.4,473.3,262,441,262s-62.7-12.6-85.6-35.4C332.6,203.7,320,173.3,320,141s12.6-62.7,35.4-85.6
		C378.3,32.6,408.7,20,441,20 M441,0c-77.9,0-141,63.1-141,141s63.1,141,141,141s141-63.1,141-141S518.9,0,441,0L441,0z"/>
</g>
<path class="st2" d="M441,301"/>
<path class="st3" d="M150,627c77.9,0,141-63.1,141-141s-63.1-141-141-141S9,408.1,9,486S72.1,627,150,627"/>
<g>
	<circle class="st4" cx="450" cy="436" r="131"/>
	<path class="st1" d="M450,315c32.3,0,62.7,12.6,85.6,35.4c22.9,22.9,35.4,53.2,35.4,85.6s-12.6,62.7-35.4,85.6S482.3,557,450,557
		s-62.7-12.6-85.6-35.4S329,468.3,329,436s12.6-62.7,35.4-85.6C387.3,327.6,417.7,315,450,315 M450,295c-77.9,0-141,63.1-141,141
		s63.1,141,141,141s141-63.1,141-141S527.9,295,450,295L450,295z"/>
</g>
<path class="st2" d="M450,596"/>
</svg>
