<?xml version="1.0" encoding="utf-8"?>
<!-- Generator: Adobe Illustrator 22.0.0, SVG Export Plug-In . SVG Version: 6.00 Build 0)  -->
<svg version="1.1" id="Layer_1" xmlns="http://www.w3.org/2000/svg" xmlns:xlink="http://www.w3.org/1999/xlink" x="0px" y="0px"
	 viewBox="0 0 592 637" style="enable-background:new 0 0 592 637;" xml:space="preserve">
<style type="text/css">
	.st0{fill:#405352;}
	.st1{fill:#FFFFFF;}
	.st2{fill:#D73832;}
	.st3{fill:#FFFFFF;stroke:#FFFFFF;stroke-width:20;stroke-miterlimit:10;}
	.st4{fill:#405352;stroke:#FFFFFF;stroke-width:20;stroke-miterlimit:10;}
</style>
<g>
	<circle class="st0" cx="142" cy="191" r="131"/>
	<path class="st1" d="M142,70c32.3,0,62.7,12.6,85.6,35.4c22.9,22.9,35.4,53.2,35.4,85.6s-12.6,62.7-35.4,85.6
		C204.7,299.4,174.3,312,142,312s-62.7-12.6-85.6-35.4C33.6,253.7,21,223.3,21,191s12.6-62.7,35.4-85.6C79.3,82.6,109.7,70,142,70
		 M142,50C64.1,50,1,113.1,1,191s63.1,141,141,141s141-63.1,141-141S219.9,50,142,50L142,50z"/>
</g>
<g>
	<circle class="st2" cx="442" cy="141" r="131"/>
	<path class="st1" d="M442,20c32.3,0,62.7,12.6,85.6,35.4C550.4,78.3,563,108.7,563,141s-12.6,62.7-35.4,85.6
		C504.7,249.4,474.3,262,442,262s-62.7-12.6-85.6-35.4C333.6,203.7,321,173.3,321,141s12.6-62.7,35.4-85.6
		C379.3,32.6,409.7,20,442,20 M442,0c-77.9,0-141,63.1-141,141s63.1,141,141,141s141-63.1,141-141S519.9,0,442,0L442,0z"/>
</g>
<path class="st3" d="M442,301"/>
<path class="st4" d="M151,627c77.9,0,141-63.1,141-141s-63.1-141-141-141S10,408.1,10,486S73.1,627,151,627"/>
<g>
	<circle class="st2" cx="451" cy="436" r="131"/>
	<path class="st1" d="M451,315c32.3,0,62.7,12.6,85.6,35.4c22.9,22.9,35.4,53.2,35.4,85.6s-12.6,62.7-35.4,85.6S483.3,557,451,557
		s-62.7-12.6-85.6-35.4S330,468.3,330,436s12.6-62.7,35.4-85.6C388.3,327.6,418.7,315,451,315 M451,295c-77.9,0-141,63.1-141,141
		s63.1,141,141,141s141-63.1,141-141S528.9,295,451,295L451,295z"/>
</g>
<path class="st3" d="M451,596"/>
</svg>
