<?xml version="1.0" encoding="utf-8"?>
<!-- Generator: Adobe Illustrator 22.0.0, SVG Export Plug-In . SVG Version: 6.00 Build 0)  -->
<svg version="1.1" id="Layer_1" xmlns="http://www.w3.org/2000/svg" xmlns:xlink="http://www.w3.org/1999/xlink" x="0px" y="0px"
	 viewBox="0 0 592 637" style="enable-background:new 0 0 592 637;" xml:space="preserve">
<style type="text/css">
	.st0{opacity:0;fill:#696969;}
	.st1{fill:#FFFFFF;}
	.st2{fill:#405352;}
</style>
<symbol  id="Nouveau_symbole_10" viewBox="-36 -36 72 72">
	<rect id="XMLID_17_" x="-36" y="-36" class="st0" width="72" height="72"/>
	<g id="XMLID_9_">
		<path id="XMLID_15_" class="st1" d="M1.3,21.4c0.5,0,1.1-0.2,1.5-0.5L25.1,3.3c2.1-1.7,2.1-4.9,0-6.5L2.9-20.9
			c-0.5-0.4-1-0.5-1.5-0.5c-1.3,0-2.5,1-2.5,2.5v9.5h-23.1c-1.4,0-2.5,1.1-2.5,2.5V7c0,1.4,1.1,2.5,2.5,2.5h23.1v9.5
			C-1.1,20.4,0.1,21.4,1.3,21.4"/>
		<path id="XMLID_14_" class="st2" d="M1.9-6.5h-23.8c-1,0-1.8,0.8-1.8,1.8v9.4c0,1,0.8,1.8,1.8,1.8H1.9v9c0,1,1.1,1.5,1.9,0.9
			L23.3,0.9c0.4-0.3,0.4-0.7,0.4-0.9c0-0.2-0.1-0.6-0.4-0.9L3.8-16.3c-0.8-0.6-1.9-0.1-1.9,0.9V-6.5z"/>
		<path id="XMLID_11_" class="st1" d="M3-17.1c-0.2,0-0.5,0.1-0.7,0.2c-0.6,0.3-0.9,0.9-0.9,1.5V-7h-23.3c-1.3,0-2.3,1-2.3,2.3v9.4
			c0,1.3,1,2.3,2.3,2.3H1.4v8.5c0,0.6,0.4,1.2,0.9,1.5c0.6,0.3,1.3,0.2,1.8-0.2L23.6,1.3c0.6-0.4,0.6-1,0.6-1.3s-0.1-0.9-0.6-1.3
			L4.1-16.7C3.8-17,3.4-17.1,3-17.1z M-21.9,6c-0.7,0-1.3-0.6-1.3-1.3v-9.4c0-0.7,0.6-1.3,1.3-1.3H2.4v-9.5c0-0.3,0.1-0.5,0.4-0.6
			c0.2-0.1,0.5-0.1,0.7,0.1L22.9-0.5c0.2,0.2,0.3,0.4,0.3,0.5s0,0.4-0.3,0.5L3.4,15.9C3.2,16.1,3,16.1,2.7,16
			c-0.2-0.1-0.4-0.3-0.4-0.6V6H-21.9z"/>
	</g>
</symbol>
<use xlink:href="#Nouveau_symbole_10"  width="72" height="72" id="XMLID_233_" x="-36" y="-36" transform="matrix(5.8042 -5.8042 -5.8042 -5.8042 296 318.5)" style="overflow:visible;"/>
</svg>
