<?xml version="1.0" encoding="utf-8"?>
<!-- Generator: Adobe Illustrator 22.0.0, SVG Export Plug-In . SVG Version: 6.00 Build 0)  -->
<svg version="1.1" id="Layer_1" xmlns="http://www.w3.org/2000/svg" xmlns:xlink="http://www.w3.org/1999/xlink" x="0px" y="0px"
	 viewBox="0 0 592 637" style="enable-background:new 0 0 592 637;" xml:space="preserve">
<style type="text/css">
	.st0{fill:#FFFFFF;}
</style>
<symbol  id="Nouveau_symbole_2" viewBox="-17.3 -16.5 34.6 33.1">
	<g id="XMLID_1_">
		<g id="XMLID_26_">
			<path id="XMLID_29_" class="st0" d="M9.5-16.5c-0.3,0-0.5,0.1-0.8,0.2L0-11.7c-0.1,0-0.1,0-0.2,0c-0.1,0-0.1,0-0.2,0L-9-16.2
				c-0.2-0.1-0.5-0.2-0.8-0.2c-0.5,0-1,0.2-1.3,0.6c-0.3,0.4-0.4,0.9-0.4,1.4l1.7,9.7c0,0.1,0,0.2-0.1,0.3l-7,6.9
				c-0.5,0.4-0.6,1.1-0.4,1.7c0.2,0.6,0.7,1,1.3,1.1l9.8,1.3c0.1,0,0.2,0.1,0.3,0.2l4.4,8.8c0.3,0.6,0.9,0.9,1.5,0.9
				c0.6,0,1.2-0.4,1.5-0.9l4.3-8.9c0-0.1,0.1-0.2,0.3-0.2l9.7-1.5C16.5,5,17,4.5,17.2,3.9c0.2-0.6,0-1.3-0.4-1.7L9.7-4.6
				C9.6-4.7,9.5-4.8,9.6-4.9l1.6-9.7c0.1-0.5-0.1-1-0.4-1.3C10.5-16.3,10-16.5,9.5-16.5z"/>
			<path id="XMLID_27_" class="st0" d="M0.1,15.9c0.4,0,0.7-0.2,0.9-0.6l4.3-8.9C5.4,6.2,5.7,6,6,5.9l9.7-1.5
				c0.8-0.1,1.1-1.1,0.5-1.7L9.2-4.1C9-4.3,8.9-4.7,8.9-5l1.6-9.7c0.1-0.6-0.4-1.2-1-1.2c-0.2,0-0.3,0-0.5,0.1l-8.7,4.6
				C0.2-11,0-11-0.1-11c-0.2,0-0.3,0-0.5-0.1l-8.8-4.5c-0.2-0.1-0.3-0.1-0.5-0.1c-0.6,0-1.1,0.5-1,1.2L-9-4.9C-9-4.5-9.1-4.2-9.3-4
				l-7,6.9c-0.6,0.6-0.3,1.6,0.6,1.7L-6,6c0.3,0,0.6,0.2,0.8,0.5l4.4,8.8C-0.6,15.7-0.3,15.9,0.1,15.9"/>
		</g>
		<g id="XMLID_2_">
			<g id="XMLID_19_">
				<path id="XMLID_25_" class="st0" d="M1.6-8.8C1.1-8.5,0.5-8.4-0.1-8.4c-0.6,0-1.2-0.1-1.7-0.4L-6.1-11c-0.6-0.3-1.3,0.2-1.2,0.9
					l0.8,4.4c0.3,1.4-0.2,2.9-1.2,3.9L-11,1.3c-0.5,0.5-0.2,1.3,0.5,1.4l4.9,0.7c1.2,0.2,2.2,0.9,2.7,2l2.2,4.4
					c0.3,0.6,1.2,0.6,1.5,0l2.1-4.4c0.5-1.1,1.5-1.8,2.7-2l4.8-0.7c0.7-0.1,0.9-0.9,0.4-1.4L7.4-2.2c-0.9-0.8-1.3-2-1.1-3.2l0.8-4.8
					c0.1-0.7-0.6-1.2-1.2-0.9L1.6-8.8z"/>
				<path id="XMLID_22_" class="st0" d="M6.3-11.5c-0.2,0-0.4,0-0.5,0.1L1.4-9.1c-0.9,0.5-2.1,0.5-3.1,0L-6-11.3
					c-0.4-0.2-0.9-0.2-1.2,0.1c-0.4,0.3-0.5,0.7-0.4,1.1l0.8,4.4C-6.6-4.4-7-3-8-2l-3.2,3.1c-0.3,0.3-0.4,0.8-0.3,1.2
					S-11,3-10.5,3.1l4.9,0.7c1.1,0.2,2,0.8,2.5,1.8L-1,9.9c0.2,0.4,0.6,0.7,1,0.6c0.4,0,0.8-0.3,1-0.6l2.1-4.4
					c0.5-1,1.4-1.7,2.5-1.8l4.8-0.7c0.4-0.1,0.8-0.4,0.9-0.8c0.1-0.4,0-0.9-0.3-1.2L7.6-2.5c-0.8-0.8-1.1-1.8-1-2.9l0.8-4.8
					c0.1-0.4-0.1-0.9-0.5-1.1C6.8-11.5,6.5-11.5,6.3-11.5z M-0.1-8c0.6,0,1.3-0.2,1.9-0.5l4.3-2.3c0.2-0.1,0.4-0.1,0.5,0
					c0.2,0.1,0.2,0.3,0.2,0.5L6-5.5C5.8-4.2,6.2-2.9,7.2-2l3.5,3.4c0.1,0.1,0.2,0.3,0.1,0.5c-0.1,0.2-0.2,0.3-0.4,0.3L5.6,3
					c-1.3,0.2-2.4,1-3,2.2L0.5,9.6C0.4,9.8,0.2,9.9,0,9.9c-0.2,0-0.4-0.1-0.4-0.3l-2.2-4.4c-0.6-1.2-1.7-2-3-2.1l-4.9-0.7
					c-0.2,0-0.3-0.2-0.4-0.3c-0.1-0.2,0-0.4,0.1-0.5l3.2-3.1c1.1-1.1,1.6-2.7,1.3-4.2L-7-10.2c0-0.2,0-0.4,0.2-0.5
					c0.2-0.1,0.3-0.1,0.5,0l4.3,2.2C-1.4-8.2-0.7-8-0.1-8z"/>
			</g>
		</g>
	</g>
</symbol>
<use xlink:href="#Nouveau_symbole_2"  width="34.6" height="33.1" id="XMLID_233_" x="-17.3" y="-16.5" transform="matrix(8.5398 0 0 -8.5398 290.2788 307.7988)" style="overflow:visible;"/>
</svg>
